<svg xmlns="http://www.w3.org/2000/svg" viewBox="0 0 180 180" role="img" aria-label="Things To Do icon">
  <defs>
    <linearGradient id="steel" x1="20" y1="8" x2="160" y2="172" gradientUnits="userSpaceOnUse">
      <stop offset="0%" stop-color="#6d8278"/>
      <stop offset="100%" stop-color="#3d4f4a"/>
    </linearGradient>
    <linearGradient id="brass" x1="70" y1="40" x2="110" y2="70" gradientUnits="userSpaceOnUse">
      <stop offset="0%" stop-color="#f3d38a"/>
      <stop offset="100%" stop-color="#c9922a"/>
    </linearGradient>
  </defs>
  <rect width="180" height="180" rx="42" fill="url(#steel)"/>
  <rect x="14" y="14" width="152" height="152" rx="30" fill="#2f3f3b"/>
  <rect x="26" y="26" width="128" height="128" rx="18" fill="#4a5f58"/>
  <rect x="34" y="36" width="112" height="32" rx="6" fill="#3a4c47"/>
  <rect x="34" y="74" width="112" height="32" rx="6" fill="#354843"/>
  <rect x="34" y="112" width="112" height="32" rx="6" fill="#31443f"/>
  <rect x="68" y="44" width="44" height="16" rx="3" fill="url(#brass)"/>
  <rect x="68" y="82" width="44" height="16" rx="3" fill="url(#brass)"/>
  <rect x="68" y="120" width="44" height="16" rx="3" fill="url(#brass)"/>
  <rect x="72" y="47" width="36" height="10" rx="2" fill="#f7efe0"/>
  <rect x="72" y="85" width="36" height="10" rx="2" fill="#f3e0b8"/>
  <rect x="72" y="123" width="36" height="10" rx="2" fill="#ead7a4"/>
  <rect x="42" y="58" width="18" height="12" rx="2" fill="#f6e7c1"/>
  <rect x="64" y="56" width="18" height="14" rx="2" fill="#e8c98a"/>
  <rect x="98" y="57" width="18" height="13" rx="2" fill="#f0d6a0"/>
  <circle cx="40" cy="52" r="3" fill="#c9a24a"/>
  <circle cx="140" cy="52" r="3" fill="#c9a24a"/>
  <circle cx="40" cy="90" r="3" fill="#c9a24a"/>
  <circle cx="140" cy="90" r="3" fill="#c9a24a"/>
  <circle cx="40" cy="128" r="3" fill="#c9a24a"/>
  <circle cx="140" cy="128" r="3" fill="#c9a24a"/>
</svg>
