<svg xmlns="http://www.w3.org/2000/svg" viewBox="0 0 180 180">
  <defs>
    <linearGradient id="bg" x1="0%" y1="0%" x2="100%" y2="100%">
      <stop offset="0%" stop-color="#8b5cf6"/>
      <stop offset="100%" stop-color="#6d28d9"/>
    </linearGradient>
  </defs>
  <rect width="180" height="180" rx="40" fill="url(#bg)"/>
  <g transform="translate(90 118)">
    <path d="M-38 24 L-30 -18 L30 -18 L38 24 Z" fill="#fff"/>
    <path d="M-34 8 L-28 -14" stroke="#ef4444" stroke-width="5" stroke-linecap="round"/>
    <path d="M-18 14 L-12 -10" stroke="#ef4444" stroke-width="5" stroke-linecap="round"/>
    <path d="M-2 16 L4 -8" stroke="#ef4444" stroke-width="5" stroke-linecap="round"/>
    <path d="M14 14 L20 -10" stroke="#ef4444" stroke-width="5" stroke-linecap="round"/>
    <path d="M30 8 L34 -14" stroke="#ef4444" stroke-width="5" stroke-linecap="round"/>
    <ellipse cx="0" cy="-24" rx="34" ry="16" fill="#fff"/>
    <circle cx="-18" cy="-30" r="11" fill="#fef3c7"/>
    <circle cx="0" cy="-36" r="12" fill="#fff"/>
    <circle cx="18" cy="-28" r="10" fill="#fde68a"/>
    <circle cx="8" cy="-22" r="8" fill="#fff"/>
    <circle cx="-10" cy="-20" r="7" fill="#fef3c7"/>
  </g>
  <rect x="34" y="38" width="112" height="104" rx="14" fill="#fff"/>
  <rect x="34" y="38" width="112" height="24" rx="14" fill="#ede9fe"/>
  <rect x="34" y="50" width="112" height="12" fill="#ede9fe"/>
  <rect x="48" y="76" width="52" height="8" rx="4" fill="#ddd6fe"/>
  <rect x="48" y="94" width="44" height="8" rx="4" fill="#ddd6fe"/>
  <rect x="48" y="112" width="48" height="8" rx="4" fill="#ddd6fe"/>
  <circle cx="122" cy="100" r="28" fill="#7c3aed"/>
  <path d="M112 86v28l22-14z" fill="#fff"/>
</svg>
