<svg xmlns="http://www.w3.org/2000/svg" viewBox="0 0 180 180">
  <defs>
    <linearGradient id="bg" x1="0%" y1="0%" x2="100%" y2="100%">
      <stop offset="0%" stop-color="#3b82f6"/>
      <stop offset="100%" stop-color="#1d4ed8"/>
    </linearGradient>
  </defs>
  <rect width="180" height="180" rx="40" fill="url(#bg)"/>
  <rect x="28" y="32" width="124" height="116" rx="16" fill="#fff"/>
  <g transform="translate(90 64)">
    <rect x="-50" y="-10" width="22" height="20" rx="5" fill="#dbeafe"/>
    <path d="M-28 0h14" stroke="#93c5fd" stroke-width="6" stroke-linecap="round"/>
    <path d="M-20 -7l5 7-5 7" fill="none" stroke="#93c5fd" stroke-width="6" stroke-linecap="round" stroke-linejoin="round"/>
    <path d="M-6 0h14" stroke="#93c5fd" stroke-width="6" stroke-linecap="round"/>
    <path d="M2 -7l5 7-5 7" fill="none" stroke="#93c5fd" stroke-width="6" stroke-linecap="round" stroke-linejoin="round"/>
    <path d="M16 0h10" stroke="#93c5fd" stroke-width="6" stroke-linecap="round"/>
    <circle cx="38" cy="0" r="15" fill="#22c55e"/>
    <path d="M30 0l6 6 12-14" fill="none" stroke="#fff" stroke-width="4.5" stroke-linecap="round" stroke-linejoin="round"/>
  </g>
  <rect x="48" y="92" width="84" height="8" rx="4" fill="#dbeafe"/>
  <rect x="56" y="112" width="68" height="8" rx="4" fill="#dbeafe"/>
  <rect x="52" y="132" width="76" height="8" rx="4" fill="#dbeafe"/>
</svg>
