<svg xmlns="http://www.w3.org/2000/svg" viewBox="0 0 180 180" role="img" aria-label="Idea Notes icon">
  <defs>
    <linearGradient id="bg" x1="24" y1="20" x2="156" y2="160" gradientUnits="userSpaceOnUse">
      <stop stop-color="#a78bfa"/>
      <stop offset="1" stop-color="#22d3ee"/>
    </linearGradient>
    <linearGradient id="paper" x1="54" y1="34" x2="130" y2="142" gradientUnits="userSpaceOnUse">
      <stop stop-color="#ffffff"/>
      <stop offset="1" stop-color="#e0f2fe"/>
    </linearGradient>
  </defs>
  <rect width="180" height="180" rx="42" fill="#0b1020"/>
  <circle cx="48" cy="42" r="46" fill="#7c3aed" opacity=".42"/>
  <circle cx="144" cy="38" r="42" fill="#0891b2" opacity=".35"/>
  <path d="M45 50c0-10 8-18 18-18h56c10 0 18 8 18 18v82c0 10-8 18-18 18H63c-10 0-18-8-18-18V50Z" fill="url(#paper)"/>
  <path d="M64 63h52M64 83h36M64 103h52" stroke="#334155" stroke-width="8" stroke-linecap="round"/>
  <path d="M68 124c20-20 42-20 64 0" stroke="url(#bg)" stroke-width="9" stroke-linecap="round" fill="none"/>
  <circle cx="68" cy="124" r="10" fill="#a78bfa"/>
  <circle cx="100" cy="113" r="10" fill="#67e8f9"/>
  <circle cx="132" cy="124" r="10" fill="#22d3ee"/>
</svg>
