<svg xmlns="http://www.w3.org/2000/svg" viewBox="0 0 180 180">
  <defs>
    <linearGradient id="bg" x1="0%" y1="0%" x2="100%" y2="100%">
      <stop offset="0%" stop-color="#a78bfa"/>
      <stop offset="100%" stop-color="#7c3aed"/>
    </linearGradient>
  </defs>
  <rect width="180" height="180" rx="40" fill="url(#bg)"/>
  <rect x="36" y="42" width="108" height="8" rx="4" fill="#fff"/>
  <path d="M68 50v18" stroke="#fff" stroke-width="6" stroke-linecap="round"/>
  <circle cx="68" cy="44" r="8" fill="#fff"/>
  <path d="M112 50v18" stroke="#fff" stroke-width="6" stroke-linecap="round"/>
  <circle cx="112" cy="44" r="8" fill="#fff"/>
  <path d="M58 68 Q58 88 68 118 L88 118 Q98 88 98 68 Z" fill="#fff"/>
  <path d="M82 68 Q82 92 92 128 L112 128 Q122 92 122 68 Z" fill="#ede9fe"/>
  <path d="M104 68 Q104 84 98 104 L88 104 Q82 84 82 68 Z" fill="#fff" opacity="0.85"/>
</svg>
