<svg xmlns="http://www.w3.org/2000/svg" viewBox="0 0 180 180">
  <defs>
    <linearGradient id="bg" x1="0%" y1="0%" x2="100%" y2="100%">
      <stop offset="0%" stop-color="#a78bfa"/>
      <stop offset="100%" stop-color="#7c3aed"/>
    </linearGradient>
  </defs>
  <rect width="180" height="180" rx="40" fill="url(#bg)"/>
  <path d="M24 54 Q90 72 156 54" fill="none" stroke="#fff" stroke-width="5" stroke-linecap="round"/>
  <g fill="#ede9fe">
    <rect x="44" y="50" width="7" height="12" rx="2"/>
    <rect x="86" y="48" width="7" height="12" rx="2"/>
    <rect x="128" y="50" width="7" height="12" rx="2"/>
  </g>
  <path d="M34 66 Q48 64 62 66 L58 104 Q48 110 38 104 Z" fill="#fff"/>
  <path d="M42 66 L48 78 L54 66" fill="none" stroke="#c4b5fd" stroke-width="3" stroke-linejoin="round"/>
  <path d="M76 64 Q90 60 104 64 L96 124 Q90 130 84 124 Z" fill="#fff"/>
  <path d="M86 64 Q90 72 94 64" fill="#c4b5fd"/>
  <path d="M118 66 h28" stroke="#fff" stroke-width="4" stroke-linecap="round"/>
  <path d="M118 70 L118 108 L128 108 L128 84 L138 108 L148 108 L148 70 Z" fill="#ede9fe"/>
</svg>
