<svg xmlns="http://www.w3.org/2000/svg" viewBox="0 0 180 180">
  <defs>
    <linearGradient id="sky" x1="0" y1="0" x2="0" y2="1">
      <stop offset="0%" stop-color="#fbbf24"/>
      <stop offset="45%" stop-color="#38bdf8"/>
      <stop offset="100%" stop-color="#0d9488"/>
    </linearGradient>
  </defs>
  <rect width="180" height="180" rx="40" fill="url(#sky)"/>
  <!-- sun -->
  <circle cx="132" cy="48" r="28" fill="#fde047"/>
  <g stroke="#facc15" stroke-width="4" stroke-linecap="round">
    <line x1="132" y1="8" x2="132" y2="20"/>
    <line x1="132" y1="76" x2="132" y2="88"/>
    <line x1="92" y1="48" x2="104" y2="48"/>
    <line x1="160" y1="48" x2="172" y2="48"/>
    <line x1="104" y1="20" x2="112" y2="28"/>
    <line x1="152" y1="68" x2="160" y2="76"/>
    <line x1="160" y1="20" x2="152" y2="28"/>
    <line x1="104" y1="68" x2="112" y2="76"/>
  </g>
  <!-- suitcase / travel bag -->
  <rect x="44" y="78" width="92" height="68" rx="10" fill="#fff" stroke="#0f766e" stroke-width="3"/>
  <rect x="44" y="96" width="92" height="12" fill="#ccfbf1"/>
  <rect x="72" y="62" width="36" height="22" rx="8" fill="none" stroke="#0f766e" stroke-width="3"/>
  <circle cx="58" cy="118" r="5" fill="#0d9488"/>
  <circle cx="122" cy="118" r="5" fill="#0d9488"/>
  <path d="M56 130h68" stroke="#f97316" stroke-width="4" stroke-linecap="round"/>
</svg>
