<svg xmlns="http://www.w3.org/2000/svg" viewBox="0 0 180 180">
  <rect width="180" height="180" rx="40" fill="#faf8f5"/>
  <defs>
    <pattern id="dots" width="12" height="12" patternUnits="userSpaceOnUse">
      <circle cx="2" cy="2" r="1" fill="#e8e2d9"/>
    </pattern>
  </defs>
  <rect x="16" y="16" width="148" height="148" rx="12" fill="url(#dots)"/>
  <!-- year-view grid: 12 months x 5 weeks, colored squares -->
  <g transform="translate(28,36)">
    <!-- row 1 -->
    <rect x="0" y="0" width="10" height="10" rx="2" fill="#f8e8f0"/>
    <rect x="12" y="0" width="10" height="10" rx="2" fill="#efb8d0"/>
    <rect x="24" y="0" width="10" height="10" rx="2" fill="#e080a8"/>
    <rect x="36" y="0" width="10" height="10" rx="2" fill="#c94d78"/>
    <rect x="48" y="0" width="10" height="10" rx="2" fill="#7a1f45"/>
    <rect x="60" y="0" width="10" height="10" rx="2" fill="#efb8d0"/>
    <rect x="72" y="0" width="10" height="10" rx="2" fill="#e080a8"/>
    <rect x="84" y="0" width="10" height="10" rx="2" fill="#f8e8f0"/>
    <rect x="96" y="0" width="10" height="10" rx="2" fill="#c94d78"/>
    <rect x="108" y="0" width="10" height="10" rx="2" fill="#7a1f45"/>
    <rect x="120" y="0" width="10" height="10" rx="2" fill="#e080a8"/>
    <rect x="132" y="0" width="10" height="10" rx="2" fill="#efb8d0"/>
    <!-- row 2 -->
    <rect x="0" y="14" width="10" height="10" rx="2" fill="#e080a8"/>
    <rect x="12" y="14" width="10" height="10" rx="2" fill="#7a1f45"/>
    <rect x="24" y="14" width="10" height="10" rx="2" fill="#f8e8f0"/>
    <rect x="36" y="14" width="10" height="10" rx="2" fill="#efb8d0"/>
    <rect x="48" y="14" width="10" height="10" rx="2" fill="#c94d78"/>
    <rect x="60" y="14" width="10" height="10" rx="2" fill="#7a1f45"/>
    <rect x="72" y="14" width="10" height="10" rx="2" fill="#e080a8"/>
    <rect x="84" y="14" width="10" height="10" rx="2" fill="#efb8d0"/>
    <rect x="96" y="14" width="10" height="10" rx="2" fill="#7a1f45"/>
    <rect x="108" y="14" width="10" height="10" rx="2" fill="#f8e8f0"/>
    <rect x="120" y="14" width="10" height="10" rx="2" fill="#c94d78"/>
    <rect x="132" y="14" width="10" height="10" rx="2" fill="#e080a8"/>
    <!-- row 3 -->
    <rect x="0" y="28" width="10" height="10" rx="2" fill="#c94d78"/>
    <rect x="12" y="28" width="10" height="10" rx="2" fill="#efb8d0"/>
    <rect x="24" y="28" width="10" height="10" rx="2" fill="#7a1f45"/>
    <rect x="36" y="28" width="10" height="10" rx="2" fill="#e080a8"/>
    <rect x="48" y="28" width="10" height="10" rx="2" fill="#f8e8f0"/>
    <rect x="60" y="28" width="10" height="10" rx="2" fill="#e080a8"/>
    <rect x="72" y="28" width="10" height="10" rx="2" fill="#7a1f45"/>
    <rect x="84" y="28" width="10" height="10" rx="2" fill="#c94d78"/>
    <rect x="96" y="28" width="10" height="10" rx="2" fill="#efb8d0"/>
    <rect x="108" y="28" width="10" height="10" rx="2" fill="#e080a8"/>
    <rect x="120" y="28" width="10" height="10" rx="2" fill="#f8e8f0"/>
    <rect x="132" y="28" width="10" height="10" rx="2" fill="#7a1f45"/>
    <!-- row 4 -->
    <rect x="0" y="42" width="10" height="10" rx="2" fill="#efb8d0"/>
    <rect x="12" y="42" width="10" height="10" rx="2" fill="#f8e8f0"/>
    <rect x="24" y="42" width="10" height="10" rx="2" fill="#e080a8"/>
    <rect x="36" y="42" width="10" height="10" rx="2" fill="#7a1f45"/>
    <rect x="48" y="42" width="10" height="10" rx="2" fill="#efb8d0"/>
    <rect x="60" y="42" width="10" height="10" rx="2" fill="#c94d78"/>
    <rect x="72" y="42" width="10" height="10" rx="2" fill="#f8e8f0"/>
    <rect x="84" y="42" width="10" height="10" rx="2" fill="#7a1f45"/>
    <rect x="96" y="42" width="10" height="10" rx="2" fill="#e080a8"/>
    <rect x="108" y="42" width="10" height="10" rx="2" fill="#c94d78"/>
    <rect x="120" y="42" width="10" height="10" rx="2" fill="#efb8d0"/>
    <rect x="132" y="42" width="10" height="10" rx="2" fill="#e080a8"/>
    <!-- row 5 -->
    <rect x="0" y="56" width="10" height="10" rx="2" fill="#7a1f45"/>
    <rect x="12" y="56" width="10" height="10" rx="2" fill="#e080a8"/>
    <rect x="24" y="56" width="10" height="10" rx="2" fill="#c94d78"/>
    <rect x="36" y="56" width="10" height="10" rx="2" fill="#efb8d0"/>
    <rect x="48" y="56" width="10" height="10" rx="2" fill="#e080a8"/>
    <rect x="60" y="56" width="10" height="10" rx="2" fill="#f8e8f0"/>
    <rect x="72" y="56" width="10" height="10" rx="2" fill="#c94d78"/>
    <rect x="84" y="56" width="10" height="10" rx="2" fill="#efb8d0"/>
    <rect x="96" y="56" width="10" height="10" rx="2" fill="#7a1f45"/>
    <rect x="108" y="56" width="10" height="10" rx="2" fill="#e080a8"/>
    <rect x="120" y="56" width="10" height="10" rx="2" fill="#f8e8f0"/>
    <rect x="132" y="56" width="10" height="10" rx="2" fill="#c94d78"/>
  </g>
</svg>
