<svg xmlns="http://www.w3.org/2000/svg" viewBox="0 0 180 180" role="img" aria-label="Card Box icon">
  <rect width="180" height="180" rx="42" fill="#3d2f24"/>
  <rect x="10" y="10" width="160" height="160" rx="34" fill="#5a4334"/>
  <rect x="22" y="78" width="136" height="80" rx="10" fill="#8b5e3c"/>
  <rect x="26" y="82" width="128" height="70" rx="8" fill="#6e452c"/>
  <rect x="30" y="58" width="18" height="36" rx="4" fill="#f2cc8f"/>
  <rect x="50" y="52" width="18" height="42" rx="4" fill="#e07a9a"/>
  <rect x="70" y="48" width="18" height="46" rx="4" fill="#7eb8da"/>
  <rect x="90" y="54" width="18" height="40" rx="4" fill="#81b29a"/>
  <rect x="110" y="50" width="18" height="44" rx="4" fill="#9b8ec4"/>
  <rect x="130" y="56" width="18" height="38" rx="4" fill="#f4a261"/>
  <rect x="42" y="70" width="96" height="68" rx="6" fill="#fbf6ea" transform="rotate(-8 90 104)"/>
  <rect x="46" y="78" width="88" height="3" rx="1.5" fill="#c45c5c" transform="rotate(-8 90 79.5)"/>
  <rect x="52" y="92" width="70" height="4" rx="2" fill="#d8cbb3" transform="rotate(-8 87 94)"/>
  <rect x="54" y="104" width="54" height="4" rx="2" fill="#d8cbb3" transform="rotate(-8 81 106)"/>
  <rect x="56" y="116" width="62" height="4" rx="2" fill="#d8cbb3" transform="rotate(-8 87 118)"/>
</svg>
